<?xml version="1.0" encoding="utf-8"?>
<!DOCTYPE svg PUBLIC "-//W3C//DTD SVG 1.1//EN" "http://www.w3.org/Graphics/SVG/1.1/DTD/svg11.dtd">
<svg version="1.1" xmlns="http://www.w3.org/2000/svg" width="344px" height="344px" viewBox="0 0 344 344" preserveAspectRatio="xMidYMid meet">
 <g fill="#bc9a45">
  <path d="M163.75 180.40 c-5.05 -0.55 -11.80 -1.80 -15.25 -2.90 -0.70 -0.20 -2.15 -0.65 -3.25 -0.95 -1.10 -0.35 -2.55 -0.85 -3.25 -1.15 -0.70 -0.30 -1.70 -0.70 -2.25 -0.90 -0.55 -0.20 -3 -1.35 -5.50 -2.55 -8.75 -4.20 -18.55 -11.45 -25.50 -18.90 -3.10 -3.25 -9.15 -11.25 -10.75 -14.15 -3.15 -5.70 -6.05 -12.10 -7.45 -16.40 -2.25 -6.85 -2.40 -7.40 -3.05 -11.25 -0.35 -1.90 -0.80 -4.60 -1.05 -5.90 -0.60 -3.30 -0.55 -18.50 0.05 -22.15 1.50 -8.45 3.20 -15.20 5 -19.45 1.45 -3.50 2.25 -5.25 3.25 -7.30 8.70 -17.10 21.90 -30.40 38.25 -38.50 6.25 -3.10 6.70 -3.30 10 -4.45 0.95 -0.35 2.20 -0.80 2.75 -1 1.85 -0.70 6.15 -1.75 12.75 -3.10 4.05 -0.80 23.20 -0.85 26.75 -0.05 1.40 0.30 3.85 0.85 5.50 1.15 2.75 0.60 10.55 2.95 13 3.95 11.45 4.80 20.40 10.65 28.50 18.80 5.85 5.85 7.05 7.25 10.65 12.55 8.30 12.35 11.75 21.20 14.60 37.40 0.60 3.65 0.65 18.85 0.05 22.15 -0.25 1.30 -0.70 4 -1.05 5.90 -0.65 3.70 -0.75 4.25 -2.75 10.45 -5.70 17.70 -17.80 33.65 -33.50 44.15 -3.95 2.70 -12.70 7.40 -16.25 8.80 -0.70 0.25 -1.65 0.65 -2.10 0.90 -0.50 0.25 -1.35 0.45 -1.85 0.45 -0.55 0 -1.10 0.20 -1.25 0.45 -0.15 0.25 -0.90 0.55 -1.65 0.70 -0.80 0.15 -2.75 0.60 -4.40 1 -10.25 2.60 -19.60 3.30 -29 2.25z m21.05 -6.95 c21.70 -3.60 41.75 -16.90 54 -35.70 6.15 -9.50 9.45 -17.75 12.30 -31 1 -4.65 0.80 -20.40 -0.30 -26 -4.40 -21.95 -17.80 -41.65 -36.25 -53.40 -15.60 -9.85 -34.65 -14.50 -50.90 -12.35 -35.05 4.65 -62.45 29.85 -70.25 64.55 -1 4.50 -1.15 6.55 -1.15 14.95 0.05 8.90 0.15 10.25 1.45 15.75 2.15 9.10 5.75 18.30 9.95 25.25 2.60 4.35 8.35 11.50 12.40 15.55 9.55 9.35 19.75 15.65 32.05 19.65 12.95 4.25 23.35 5 36.70 2.75z"/>
 </g>
 <g fill="#7495c6">
  <path d="M17 320.60 c0 -13.95 0.15 -16.40 1.60 -23.60 1.35 -6.90 5.40 -16.70 9.50 -23.15 1.75 -2.65 5.60 -8.05 6.40 -8.85 0.15 -0.15 1.85 -1.95 3.75 -4 5 -5.30 9.40 -9.25 14.80 -13.30 4.60 -3.50 12.20 -8.70 12.65 -8.70 0.10 0 1.65 -0.90 3.45 -2 4.60 -2.75 23.70 -12 24.85 -12 0.30 0 0.90 -0.20 1.40 -0.45 0.45 -0.25 1.45 -0.70 2.25 -1 0.75 -0.30 1.85 -0.75 2.50 -1 2 -0.85 8.55 -3.15 10.10 -3.55 0.85 -0.20 2.50 -0.70 3.75 -1.10 1.25 -0.40 3.25 -1.05 4.50 -1.40 1.25 -0.35 2.90 -0.80 3.70 -1.05 1.90 -0.60 98.40 -0.60 99.90 0 0.65 0.25 2.15 0.70 3.40 1.05 6.85 1.90 13.55 4.10 18.25 6 0.55 0.20 2.35 0.90 4 1.55 2.85 1.05 4.55 1.80 10.50 4.45 6.10 2.75 15.75 7.75 18.35 9.60 0.70 0.50 1.45 0.90 1.60 0.90 0.55 0 7.70 4.85 12.75 8.70 5.40 4.05 9.80 8 14.80 13.30 1.95 2.05 3.60 3.85 3.75 4 0.80 0.80 4.65 6.20 6.40 8.85 4.10 6.45 8.15 16.25 9.50 23.15 1.45 7.20 1.60 9.65 1.60 23.60 0 14.90 0 14.90 -155 14.90 -155 0 -155 0 -155 -14.90z m303.85 -3.95 c-0.30 -13.65 -0.70 -16.75 -3.10 -23.95 -4 -12 -13.60 -25.45 -24.55 -34.65 -17.45 -14.60 -38.75 -25.70 -66.35 -34.65 -6.60 -2.15 -6.60 -2.15 -53.60 -2.30 -53.35 -0.15 -47.20 -0.60 -61.75 4.35 -45.50 15.35 -76.50 39.90 -85.20 67.55 -2.65 8.30 -2.90 10.10 -3.15 23.65 -0.25 12.85 -0.25 12.85 148.85 12.85 149.10 0 149.10 0 148.85 -12.85z"/>
 </g>
 <g fill="#ffeea2">
  <path d="M163.80 176 c-19.05 -2.20 -35.65 -10.10 -49.25 -23.45 -4.05 -4.05 -9.80 -11.20 -12.40 -15.55 -4.20 -6.95 -7.80 -16.15 -9.95 -25.25 -1.35 -5.65 -1.40 -6.70 -1.45 -17.25 0 -10 0.15 -11.85 1.15 -16.45 3.75 -16.60 11.65 -30.75 23.75 -42.35 19.70 -19 47.60 -26.75 74.60 -20.75 10.90 2.45 23.70 8.65 32.80 15.85 3.80 3.10 10.80 10.30 14 14.45 7.30 9.55 12.95 22.15 15.30 34.25 1.15 6 1.30 23.30 0.20 28.75 -2.30 11.90 -6.10 21.50 -12.25 31 -12.25 18.80 -32.20 32 -54.05 35.75 -6.70 1.15 -17.05 1.60 -22.45 1z"/>
 </g>
 <g fill="#c2e7fd">
  <path d="M21.65 316.65 c0.25 -15.20 0.45 -16.65 3.15 -25.15 8.70 -27.65 39.70 -52.20 85.20 -67.55 14.55 -4.95 8.20 -4.50 63.25 -4.35 48.50 0.15 48.50 0.15 55.10 2.30 27.60 8.95 48.90 20.05 66.35 34.65 10.95 9.20 20.55 22.65 24.55 34.65 2.50 7.45 2.85 10.15 3.10 25.45 0.25 14.35 0.25 14.35 -150.35 14.35 -150.60 0 -150.60 0 -150.35 -14.35z"/>
 </g>
</svg>