<?xml version="1.0" encoding="utf-8"?>
<!DOCTYPE svg PUBLIC "-//W3C//DTD SVG 1.1//EN" "http://www.w3.org/Graphics/SVG/1.1/DTD/svg11.dtd">
<svg version="1.1" xmlns="http://www.w3.org/2000/svg" width="200px" height="200px" viewBox="0 0 200 200" preserveAspectRatio="xMidYMid meet">
 <g fill="#84f1f1">
  <path d="M56.7 165.2 l-22.7 -12.6 -0.1 -17 c-0.1 -9.4 -0.3 -24.4 -0.5 -33.3 -0.2 -15.5 -0.1 -16.3 1.7 -16.3 1.7 0 1.9 0.8 1.9 6 l0 6 4.5 2.2 c4.2 2 4.5 2.5 4.5 6 0 3.6 0.1 3.8 3.3 3.8 1.8 0 3.8 0.5 4.5 1.2 0.6 0.6 3.3 1.2 5.9 1.2 4.2 0.1 4.8 0.4 5.3 2.6 0.5 2.1 1.3 2.6 5 3.1 5.1 0.6 5.9 1 34.1 16.5 11.4 6.3 21.2 11.4 21.8 11.4 4.3 0 -3.3 5.7 -25 18.8 l-21.5 12.9 -22.7 -12.5z"/>
  <path d="M33 50.3 c0 -1.3 6.6 -5.7 21 -14.3 11.6 -6.9 21.5 -12.6 22 -12.8 0.6 -0.2 1 0.8 1 2.2 0 2.1 -0.5 2.6 -2.5 2.6 -1.6 0 -2.5 0.6 -2.5 1.5 0 0.9 -0.9 1.5 -2.5 1.5 -1.6 0 -2.5 0.6 -2.5 1.5 0 0.9 -0.9 1.5 -2.5 1.5 -1.6 0 -2.5 0.6 -2.5 1.5 0 0.9 -0.9 1.5 -2.5 1.5 -1.6 0 -2.5 0.6 -2.5 1.5 0 0.9 -0.9 1.5 -2.5 1.5 -1.6 0 -2.5 0.6 -2.5 1.5 0 0.9 -0.9 1.5 -2.5 1.5 -1.6 0 -2.5 0.6 -2.5 1.5 0 0.9 -0.9 1.5 -2.5 1.5 -1.6 0 -2.5 0.6 -2.5 1.5 0 0.9 -0.9 1.5 -2.5 1.5 -1.6 0 -2.5 0.6 -2.5 1.5 0 0.8 -0.9 1.5 -2 1.5 -1.2 0 -2 -0.7 -2 -1.7z"/>
  <path d="M117 47.5 c0 -2.9 0.2 -3 4 -1 4 2.1 3.8 3.5 -0.5 3.5 -3.1 0 -3.5 -0.3 -3.5 -2.5z"/>
  <path d="M99 37.5 c0 -3 0.3 -3 4.1 -0.8 3.8 2.3 3.7 3.3 -0.6 3.3 -3.1 0 -3.5 -0.3 -3.5 -2.5z"/>
  <path d="M90 32.5 c0 -3 0.3 -3 4.1 -0.8 3.8 2.3 3.7 3.3 -0.6 3.3 -3.1 0 -3.5 -0.3 -3.5 -2.5z"/>
  <path d="M81 27.5 c0 -3 0.3 -3 4.1 -0.8 3.8 2.3 3.7 3.3 -0.6 3.3 -3.1 0 -3.5 -0.3 -3.5 -2.5z"/>
 </g>
 <g fill="#84dcf1">
  <path d="M121.1 148.7 c-0.7 -0.9 -1 -13.5 -1 -39.2 0 -20.8 -0.3 -43.6 -0.7 -50.7 -0.7 -12.3 -0.6 -12.8 1.2 -12.1 1 0.3 11.6 6 23.5 12.6 l21.6 11.9 0.7 5.2 c0.3 2.8 0.6 14.6 0.6 26.1 l0 21 -21.7 13 c-12 7.1 -22.1 13 -22.4 13.2 -0.4 0.1 -1.2 -0.3 -1.8 -1z m19.7 -40.4 c-1 -0.2 -2.8 -0.2 -4 0 -1.3 0.2 -0.5 0.4 1.7 0.4 2.2 0.1 3.2 -0.1 2.3 -0.4z"/>
 </g>
 <g fill="#84f1c5">
  <path d="M35.5 101.7 c-1.7 -1.3 -1.8 -3.3 -1.9 -27.2 l-0.1 -25.9 21.3 -12.8 c11.7 -7 21.8 -12.8 22.3 -12.8 0.6 0 10.9 5.5 23 12.2 15.2 8.4 21.9 12.6 21.9 13.8 0 1.2 -6.6 5.7 -20.5 14 -11.3 6.8 -20.9 12.9 -21.3 13.6 -0.5 0.8 -3.4 1.4 -8.2 1.6 l-7.5 0.3 -0.3 4.6 c-0.2 3.8 -0.8 4.8 -3.2 6.2 -1.5 0.9 -4.2 1.7 -5.9 1.7 l-3 0 -0.4 -6.7 c-0.3 -6.3 -0.3 -6.1 -0.5 2.2 l-0.2 9 -6.5 3.8 c-3.5 2 -6.5 3.7 -6.7 3.7 -0.2 0 -1.2 -0.6 -2.3 -1.3z"/>
 </g>
 <g fill="#51d8e4">
  <path d="M99.5 136.8 c-12.6 -7 -23.1 -13.2 -23.3 -13.7 -0.2 -0.5 2.2 -2.3 5.3 -4.1 4.1 -2.3 6.5 -3.1 9 -2.8 3.1 0.4 3.5 0.1 4.9 -3.5 1.5 -3.8 1.6 -3.9 6.1 -3.5 4.3 0.3 4.5 0.2 4.5 -2.4 0 -2.4 0.4 -2.8 3 -2.8 2.2 0 3 -0.5 3 -1.8 0 -2.9 6.2 -5.6 10.7 -4.7 3.2 0.6 3.5 0.9 1.8 1.5 -1.7 0.7 -1.7 0.9 -0.2 0.9 1.8 0.1 2.5 2.1 0.7 2.1 -1.5 0 -1.2 8.7 0.3 9.3 0.7 0.3 0.5 0.6 -0.5 0.6 -2.2 0.1 -2.4 2.1 -0.3 2.1 0.8 0 1.5 0.5 1.5 1 0 0.6 -0.7 1 -1.5 1 -1.2 0 -1.5 2.8 -1.7 16.8 l-0.3 16.7 -23 -12.7z"/>
  <path d="M119 75 c0 -16.4 0.3 -20 1.4 -20 2 0 2.6 3.2 2.8 17 0.1 6.9 0.3 10.4 0.5 7.8 0.7 -8.7 2.3 -5 2.3 5.2 0 5.5 -0.4 10 -0.9 10 -0.5 0 -1.2 -1.2 -1.4 -2.7 l-0.4 -2.8 -0.2 2.8 c-0.1 2 -0.6 2.7 -2.1 2.7 -1.9 0 -2 -0.7 -2 -20z"/>
  <path d="M118.2 49.3 c0.5 -2.6 3.8 -2.9 3.8 -0.4 0 1.5 -0.6 2.1 -2.1 2.1 -1.4 0 -1.9 -0.5 -1.7 -1.7z"/>
 </g>
 <g fill="#51ebc3">
  <path d="M72.8 122.7 c-2.6 -1.2 -4.8 -2.8 -4.8 -3.4 0 -0.8 -1 -1.1 -2.9 -0.7 -2.3 0.5 -2.9 0.2 -3.4 -1.5 -0.7 -2.7 -2.7 -2.8 -2.7 -0.1 0 1.3 -0.5 1.8 -1.5 1.4 -1 -0.4 -1.5 -2 -1.5 -4.5 0 -3.8 -0.1 -3.9 -3.4 -3.9 -1.8 0 -3.9 -0.6 -4.5 -1.4 -0.7 -0.8 -2.1 -1.2 -3.1 -0.9 -1.3 0.4 -2 0 -2 -0.9 0 -0.8 -2.1 -2.4 -4.7 -3.7 l-4.7 -2.3 7.2 -4.1 c3.9 -2.3 7.2 -4.8 7.2 -5.4 0 -0.7 0.7 -1.3 1.5 -1.3 1.2 0 1.5 -1.3 1.5 -6 l0 -6 3.5 0 c2.4 0 3.5 0.5 3.5 1.5 0 0.8 -0.7 1.5 -1.5 1.5 -1.1 0 -1.5 1.1 -1.5 3.6 l0 3.5 3 -1.8 c1.7 -0.9 3 -2.3 3 -3 0 -0.7 0.7 -1.3 1.4 -1.3 1.1 0 1.6 1.4 1.9 4.8 0.3 3.9 0.4 3.6 0.5 -2 l0.2 -6.8 3.5 0 c2.4 0 3.5 -0.5 3.5 -1.5 0 -0.9 0.9 -1.5 2.1 -1.5 1.1 0 2.8 -0.8 3.7 -1.9 2.5 -2.7 42.2 -26.2 43.3 -25.6 0.5 0.4 0.9 1.1 0.9 1.7 0 1.4 -4 4.8 -5.7 4.8 -0.7 0 -1.3 0.4 -1.3 0.9 0 0.5 -1 1.3 -2.2 1.7 -1.2 0.3 -2.8 1.3 -3.6 2 -0.7 0.8 -2 1.4 -2.8 1.4 -0.8 0 -1.4 0.4 -1.4 0.9 0 0.5 -1 1.3 -2.2 1.7 -1.2 0.3 -2.8 1.3 -3.6 2 -0.7 0.8 -2 1.4 -2.8 1.4 -0.8 0 -1.4 0.4 -1.4 1 0 0.5 -1.1 1.2 -2.5 1.6 -1.4 0.3 -2.5 1 -2.5 1.4 0 0.5 -1 1.2 -2.2 1.6 -1.2 0.3 -2.8 1.3 -3.6 2 -0.7 0.8 -2 1.4 -2.8 1.4 -1.2 0 -1.4 3.8 -1.2 24.7 0.3 27.9 0.7 26.7 -7.4 23z"/>
  <path d="M43 78 c0 -2.3 0.4 -3 2 -3 1.6 0 2 0.7 2 3 0 2.3 -0.4 3 -2 3 -1.6 0 -2 -0.7 -2 -3z"/>
 </g>
 <g fill="#67bcce">
  <path d="M124.5 121 c-0.6 -0.9 3.3 -3 5.6 -3 0.5 0 0.9 -0.4 0.9 -0.9 0 -0.6 -2.1 -1.1 -4.7 -1.3 -4.3 -0.3 -4.8 -0.6 -5 -2.8 -0.1 -1.4 0 -1.8 0.3 -0.9 0.3 0.9 1.9 1.9 3.6 2.3 3.9 0.8 12.6 0.8 15.6 0 4.1 -1.2 2.2 -2.4 -3.7 -2.4 -5.7 0 -5.8 -0.1 -5.3 -2.5 0.3 -1.9 0.1 -2.4 -1 -2 -0.9 0.4 -1.4 -0.1 -1.4 -1.4 0 -1.2 0.7 -1.9 1.8 -1.8 1 0.1 1.8 0.5 1.8 0.9 0 0.9 3.2 1.1 5.4 0.2 1.1 -0.4 1.4 -1.3 1 -3 -0.5 -2 -0.2 -2.4 1.7 -2.5 l2.4 -0.1 -2.5 -0.8 c-2.4 -0.9 -2.4 -0.9 0.5 -0.7 l3 0.2 0.3 7.3 c0.3 8.7 -0.5 10.2 -5.9 10.2 -4.6 0 -5.2 1.6 -0.9 2.5 1.7 0.4 3 1.3 3 2.1 0 1.1 -1.7 1.4 -7.9 1.4 -4.4 0 -8.3 -0.5 -8.6 -1z m10.8 -1.7 c-0.7 -0.2 -1.3 -1.1 -1.3 -1.9 0 -0.8 -0.4 -1.4 -1 -1.4 -0.5 0 -1 0.6 -1 1.4 0 0.8 -0.6 1.7 -1.2 1.9 -0.7 0.3 0.3 0.5 2.2 0.5 1.9 0 2.9 -0.2 2.3 -0.5z"/>
  <path d="M45 119 c0 -1.1 0.7 -2 1.5 -2 1 0 1.5 -1 1.5 -3 0 -2.8 0.3 -3 3.5 -3 3.2 0 3.5 0.2 3.5 3 0 1.7 0.5 3 1 3 0.6 0 1 0.9 1 2 0 1.3 -0.7 2 -2 2 -1.4 0 -2 -0.7 -2 -2.3 0 -1.3 -0.9 -3.2 -2 -4.2 -2 -1.8 -2 -1.7 -2 2.3 0 3.5 -0.3 4.2 -2 4.2 -1.3 0 -2 -0.7 -2 -2z"/>
  <path d="M62.5 119.9 c-1.1 -1.6 0.4 -5.9 2 -5.9 1 0 1.5 1.1 1.5 3.5 0 3.5 -2 4.9 -3.5 2.4z"/>
  <path d="M90.5 120 c-0.3 -0.5 -1.2 -0.7 -2 -0.3 -1.1 0.3 -1.5 -0.2 -1.5 -1.7 0 -2 0.4 -2.2 4 -1.8 3.3 0.3 4 0 4 -1.4 0 -1.4 -0.8 -1.8 -3.5 -1.8 -3.3 0 -3.5 -0.2 -3.5 -3.5 0 -3.3 0.2 -3.5 3.5 -3.5 3.1 0 3.5 0.3 3.5 2.5 0 1.6 0.6 2.5 1.5 2.5 0.8 0 1.5 -0.7 1.5 -1.5 0 -1 1.1 -1.5 3.5 -1.5 1.9 0 3.5 0.5 3.5 1 0 0.6 0.7 1 1.5 1 0.9 0 1.5 -0.9 1.5 -2.5 0 -2 -0.5 -2.5 -2.5 -2.5 -2.2 0 -2.5 -0.4 -2.5 -3.5 l0 -3.5 7 0 c6.8 0 7 0.1 7 2.5 0 1.4 -0.4 2.5 -1 2.5 -0.5 0 -1 0.9 -1 2 0 1.6 -0.7 2 -3.2 2.1 l-3.3 0.1 3.5 1.2 c3.9 1.4 5.4 5.1 2.3 5.9 -1.6 0.4 -1.7 0.5 0 0.6 2.4 0.1 2.2 3.8 -0.3 5.1 -1.6 0.8 -2 0.8 -2 -0.4 0 -0.8 -1.3 -1.5 -3.5 -1.8 -1.9 -0.2 -3.5 0 -3.5 0.4 0 0.4 -0.9 0.8 -2 0.8 -1.3 0 -2 -0.7 -2 -2 0 -1.7 0.7 -2 4.3 -2.1 l4.2 -0.1 -3.5 -0.9 c-6.1 -1.7 -6.4 -1.6 -7.9 2.9 -1.3 3.5 -2 4.2 -4.3 4.2 -1.5 0 -2.9 -0.4 -3.3 -1z"/>
  <path d="M78 114.5 c0 -3.1 0.3 -3.5 2.5 -3.5 2.2 0 2.5 0.4 2.5 3.5 0 3.1 -0.3 3.5 -2.5 3.5 -2.2 0 -2.5 -0.4 -2.5 -3.5z"/>
  <path d="M123.2 105.3 c-0.2 -4.7 0 -5.3 1.8 -5.3 1.1 0 2 0.5 2 1 0 0.6 -0.6 1 -1.4 1 -1 0 -1.6 1.4 -1.9 4.3 -0.3 4 -0.4 4 -0.5 -1z"/>
  <path d="M125.4 106.9 c-0.3 -0.6 -0.2 -1.5 0.4 -2.1 0.6 -0.6 1.1 -0.2 1.5 1.1 0.5 2.2 -0.7 2.9 -1.9 1z"/>
  <path d="M78 101.5 l0 -3.5 5 0 5 0 0 3.5 0 3.5 -5 0 -5 0 0 -3.5z"/>
  <path d="M90 101.5 c0 -1.9 0.5 -3.5 1 -3.5 0.6 0 1 -1.6 1 -3.5 0 -3.3 0.2 -3.5 3.5 -3.5 2.7 0 3.5 0.4 3.5 1.8 0 0.9 0.3 4.1 0.6 7 l0.7 5.2 -5.2 0 -5.1 0 0 -3.5z"/>
  <path d="M121.1 102.2 c-0.1 -1.3 -0.5 -2 -1.1 -1.7 -0.6 0.4 -1 -0.5 -1 -1.9 0 -1.4 0.5 -2.6 1 -2.6 0.6 0 1 -1.2 1 -2.6 0 -1.4 0.4 -2.3 1 -1.9 0.6 0.3 1 1.9 1 3.6 0 2.3 0.4 2.9 2.3 3 2.1 0.1 2.1 0.1 -0.3 0.8 -1.4 0.4 -2.7 1.7 -3.1 3.1 -0.7 2.5 -0.7 2.5 -0.8 0.2z"/>
  <path d="M131 102 c-1.2 -0.8 -1.3 -1.1 -0.1 -1.9 1.1 -0.7 1.1 -0.9 0 -1.4 -0.8 -0.3 0.4 -0.5 2.6 -0.6 3.1 0 3.6 0.2 2 0.9 -1.7 0.7 -1.7 0.9 -0.2 0.9 0.9 0.1 1.7 0.8 1.7 1.6 0 1.7 -3.7 2 -6 0.5z"/>
  <path d="M124 93 c0 -1.6 0.7 -2 3 -2 2.3 0 3 0.4 3 2 0 1.6 -0.7 2 -3 2 -2.3 0 -3 -0.4 -3 -2z"/>
  <path d="M113 89.5 c0 -3.3 0.2 -3.5 3.5 -3.5 3.3 0 3.5 0.2 3.5 3.5 0 3.3 -0.2 3.5 -3.5 3.5 -3.3 0 -3.5 -0.2 -3.5 -3.5z"/>
  <path d="M77 78.5 c0 -3.1 0.3 -3.5 2.5 -3.5 2.2 0 2.5 0.4 2.5 3.5 0 3.1 -0.3 3.5 -2.5 3.5 -2.2 0 -2.5 -0.4 -2.5 -3.5z"/>
 </g>
 <g fill="#3ed6da">
  <path d="M78 116.3 c0 -4.9 -0.3 -16.5 -0.7 -25.8 l-0.6 -17 21.9 -13.2 c12 -7.2 22.2 -12.9 22.7 -12.6 0.4 0.2 0.7 8.5 0.7 18.4 0 11.3 0.4 17.9 1 17.9 0.6 0 1 -2.1 1 -4.7 0 -7.5 0.7 -4.5 1.3 6 0.4 6.3 0.3 9.6 -0.3 9.2 -0.6 -0.3 -1 -1.5 -1 -2.6 0 -1 -0.5 -1.9 -1.1 -1.9 -0.6 0 -0.8 0.7 -0.5 1.6 0.3 0.9 0.6 2.6 0.6 3.9 0 1.4 0.7 2.5 1.8 2.8 1.3 0.4 1.1 0.5 -0.5 0.6 -1.9 0.1 -2.3 0.7 -2.4 3.4 -0.2 2.9 -0.2 2.9 -0.6 0.5 -0.4 -2.6 -0.4 -2.6 -3.4 -1 -1.6 0.9 -2.9 2.2 -2.9 2.9 0 0.6 -1.4 1.5 -3.2 1.8 -2.6 0.6 -2.8 0.9 -1.5 1.7 2.8 1.5 1.9 2.8 -1.7 2.8 -2.8 0 -3.5 -0.4 -3.9 -2.2 -0.3 -1.7 -0.5 -1.4 -0.6 1 -0.1 3 -2.1 4.8 -2.1 2 0 -0.7 -1.2 -0.1 -2.5 1.5 -1.3 1.5 -2.7 2.7 -3 2.7 -0.3 0 -0.6 -2.6 -0.7 -5.7 -0.1 -4.3 -0.2 -4.8 -0.5 -2 -0.4 3.2 -0.8 3.7 -3.1 3.8 -1.7 0.1 -2.1 0.3 -0.9 0.6 1.2 0.3 1.7 1.5 1.7 4.4 0 3.7 -1.4 5.3 -2.2 2.7 -0.3 -0.8 -2.3 -0.1 -6 2 -3 1.8 -5.8 3.2 -6.2 3.2 -0.3 0 -0.6 -3.9 -0.6 -8.7z m6.6 -3 c-1.1 -1.1 -1.7 0.4 -0.9 2.3 0.7 1.8 0.8 1.8 1.1 0.1 0.2 -1 0.1 -2.1 -0.2 -2.4z m-1.9 -6.5 c-0.2 -1.3 -0.4 -0.5 -0.4 1.7 -0.1 2.2 0.1 3.2 0.4 2.3 0.2 -1 0.2 -2.8 0 -4z m29.6 -5.5 c-1.3 -0.2 -3.3 -0.2 -4.5 0 -1.3 0.2 -0.3 0.4 2.2 0.4 2.5 0 3.5 -0.2 2.3 -0.4z m-3.6 -19.5 c-0.2 -1.8 -0.4 -0.4 -0.4 3.2 0 3.6 0.2 5 0.4 3.3 0.2 -1.8 0.2 -4.8 0 -6.5z m-27 1 c-0.2 -1.3 -0.4 -0.5 -0.4 1.7 -0.1 2.2 0.1 3.2 0.4 2.3 0.2 -1 0.2 -2.8 0 -4z"/>
  <path d="M62.9 120.5 c-0.1 -0.3 -0.1 -1.4 -0.1 -2.5 0 -4.2 0.2 -5 1.7 -5 1.1 0 1.5 1.1 1.5 4 0 2.9 -0.4 4 -1.5 4 -0.8 0 -1.5 -0.2 -1.6 -0.5z"/>
  <path d="M75 117.9 c0 -1.7 0.4 -2.8 1 -2.4 0.6 0.3 1 1.7 1 3.1 0 1.3 -0.4 2.4 -1 2.4 -0.5 0 -1 -1.4 -1 -3.1z"/>
  <path d="M46.7 116.3 c-0.4 -0.3 -0.7 -2.2 -0.7 -4 0 -3.3 0.1 -3.4 3.8 -3.1 3.5 0.3 3.7 0.5 4 4.3 l0.3 4 -2.3 -2.5 -2.3 -2.5 -0.3 2.3 c-0.3 2.2 -1.3 2.8 -2.5 1.5z"/>
  <path d="M75 104.5 c0 -1.4 0.5 -2.5 1 -2.5 0.6 0 1 1.1 1 2.5 0 1.4 -0.4 2.5 -1 2.5 -0.5 0 -1 -1.1 -1 -2.5z"/>
  <path d="M74 92 c0 -1.8 0.4 -2.9 1 -2.5 0.6 0.3 1 1.5 1 2.5 0 1 -0.4 2.2 -1 2.5 -0.6 0.4 -1 -0.7 -1 -2.5z"/>
  <path d="M74 78 c0 -1.8 0.4 -2.9 1 -2.5 0.6 0.3 1 1.5 1 2.5 0 1 -0.4 2.2 -1 2.5 -0.6 0.4 -1 -0.7 -1 -2.5z"/>
 </g>
 <g fill="#5894a1">
  <path d="M125 120.6 c0 -0.7 1.4 -1.6 3 -1.9 4.3 -0.9 3.7 -2.7 -0.9 -2.7 -4 0 -6.7 -2 -5.8 -4.2 0.3 -0.8 0.6 -0.6 0.6 0.5 0.1 1.6 1.1 1.7 10.9 1.5 l10.7 -0.3 0 -7 0 -7 -5.5 -0.1 -5.5 -0.1 5 0.6 5 0.6 0.3 5.8 0.3 5.7 -10.3 -0.2 c-5.7 -0.1 -8.2 -0.3 -5.5 -0.5 3.9 -0.3 4.7 -0.7 4.7 -2.4 0 -1.1 -0.4 -1.8 -0.9 -1.5 -0.5 0.3 -1.1 -0.4 -1.4 -1.5 -0.4 -1.5 -0.2 -1.9 0.9 -1.5 0.8 0.3 1.4 -0.1 1.4 -0.9 0 -2.3 -7.7 -2 -8.4 0.3 -0.3 1 -0.4 0.6 -0.3 -0.8 0.2 -2.2 0.8 -2.6 4.7 -3.1 l4.5 -0.6 -5.2 -0.1 c-4.9 -0.2 -5.2 -0.1 -5.6 2.6 -0.4 2.5 -0.4 2.5 -0.3 -0.3 l0.1 -3 10.9 -0.3 c8.1 -0.2 11.2 0.1 11.8 1 1.2 2 1 14.2 -0.4 15.6 -0.7 0.7 -2.9 1.2 -5 1.2 -4.6 0 -4.9 1.4 -0.8 2.9 4.7 1.6 3.6 3.1 -2.2 2.9 l-5.3 -0.1 5 -0.6 c4.8 -0.6 4.9 -0.6 1.8 -1.3 -2 -0.5 -3.3 -1.4 -3.3 -2.3 0 -2 -0.6 -1.9 -3 0.5 -1.1 1.1 -2.8 2 -3.7 2.1 -1.5 0 -1.5 0.2 0.2 0.9 1.9 0.8 1.9 0.9 -0.2 0.9 -1.3 0.1 -2.3 -0.5 -2.3 -1.3z m16.9 -12.6 c-0.1 -1.7 -0.3 -1.9 -0.6 -0.7 -0.3 1.2 -1.5 1.7 -4.1 1.8 -2.9 0 -3.3 0.2 -1.7 0.8 1.1 0.5 3 0.8 4.2 0.7 1.8 -0.1 2.3 -0.7 2.2 -2.6z m-1.9 -4 c0 -0.5 -1.1 -1 -2.5 -1 -1.4 0 -2.5 0.5 -2.5 1 0 0.6 1.1 1 2.5 1 1.4 0 2.5 -0.4 2.5 -1z"/>
  <path d="M73 120 c0 -0.5 -1.6 -1 -3.5 -1 -3.5 0 -3.5 0 -3.5 -4.5 0 -4.3 0.1 -4.5 2.9 -4.5 1.6 0 3.7 -0.3 4.6 -0.6 1.3 -0.5 1.6 -0.2 1.3 1.7 -0.2 1.8 -1.1 2.5 -3.3 2.8 -2.8 0.5 -2.8 0.5 1 1 3.5 0.5 4 1 4.3 3.4 0.3 2.2 -0.1 2.7 -1.7 2.7 -1.2 0 -2.1 -0.4 -2.1 -1z"/>
  <path d="M80.9 118.8 c-0.7 -1.3 -1.4 -5.6 -1.7 -9.5 -0.4 -6.9 -0.4 -7.3 1.7 -7.3 1.9 0 2.1 0.6 2.1 5.4 0 6.8 0.7 8.6 3.2 8.6 1.4 0 1.9 0.6 1.6 2.3 -0.4 3.2 -5.2 3.6 -6.9 0.5z"/>
  <path d="M94.5 113.6 c0.6 -6.6 0.5 -7.6 -0.9 -7.6 -0.9 0 -1.6 -0.8 -1.6 -2 0 -1.6 0.7 -2 3.5 -2 l3.5 0 -0.1 5.8 c0 6.4 -1.7 12.3 -3.7 13 -1.1 0.3 -1.3 -1 -0.7 -7.2z"/>
  <path d="M101.2 118.3 c0.3 -2.5 0.8 -2.9 4.8 -3.3 l4.5 -0.5 -4.1 -0.8 c-4.4 -0.7 -5.4 -2 -5.4 -6.7 0 -3 3 -6.5 3.7 -4.2 0.3 0.6 1.4 1.2 2.6 1.2 6.1 0.1 9.3 2.9 3.5 3.1 l-3.3 0.1 3.3 1 c2.9 1 4.6 3.8 2.2 3.8 -0.5 0 -1 0.9 -1 2 0 1.3 0.7 2 2 2 2.4 0 2.6 1.3 0.4 3.4 -1.7 1.8 -5.4 2.2 -5.4 0.6 0 -0.5 -0.9 -1 -2 -1 -1.1 0 -2 0.5 -2 1 0 0.6 -0.9 1 -2.1 1 -1.6 0 -2 -0.5 -1.7 -2.7z"/>
  <path d="M84 108.5 c0 -4.1 2 -4.8 2.1 -0.7 0 1.5 0.3 2.1 0.6 1.5 0.8 -2.1 4.3 -1.5 4.3 0.7 0 1.6 -0.7 2 -3.5 2 -3.3 0 -3.5 -0.2 -3.5 -3.5z"/>
  <path d="M73 105.1 c0 -1 0.9 -2.1 2 -2.4 1.6 -0.4 2 0 2 1.9 0 1.7 -0.6 2.4 -2 2.4 -1.3 0 -2 -0.7 -2 -1.9z"/>
  <path d="M48.7 94.4 c-1.7 -1.7 -0.5 -3.4 2.4 -3.4 2.4 0 3 0.4 2.7 1.8 -0.3 1.7 -3.8 2.9 -5.1 1.6z"/>
  <path d="M61.7 94.4 c-0.4 -0.4 -0.7 -4.7 -0.7 -9.6 0 -7.4 0.3 -9 1.7 -9.5 0.9 -0.4 1.9 -0.1 2.1 0.5 0.2 0.7 2.5 1.2 5.9 1.2 4.6 0 5.4 0.3 5.1 1.7 -0.2 1.2 -1.6 2 -4.3 2.4 -3.8 0.5 -3.8 0.5 -1 1 2.2 0.3 3.1 1 3.3 2.7 0.3 1.9 -0.1 2.2 -2.7 2.2 -4.5 0 -3.8 2 0.7 2.1 3.3 0.1 3.4 0.2 1.2 0.9 l-2.5 0.8 2.8 0.1 c2.1 0.1 2.8 0.5 2.5 1.9 -0.3 1.4 -1.6 1.8 -6.9 2 -3.5 0.2 -6.8 0 -7.2 -0.4z"/>
  <path d="M81.4 94 c-2.6 -1 -4 -4 -1.9 -4 1.9 0 2.1 -10.6 0.3 -11.4 -0.9 -0.3 -0.7 -0.9 0.6 -2 2.8 -2.3 5.6 -2 5.6 0.4 0 1.1 0.5 2 1 2 0.6 0 1 0.5 1 1 0 0.6 -0.7 1 -1.5 1 -1.1 0 -1.5 1.1 -1.5 4 0 2.9 0.4 4 1.5 4 0.8 0 1.5 0.5 1.5 1 0 0.6 0.9 1 2 1 1.3 0 2 0.7 2 2 0 1.7 -0.6 2 -4.2 1.9 -2.4 0 -5.2 -0.4 -6.4 -0.9z"/>
  <path d="M95.7 94.3 c-1.7 -1.6 -0.5 -3.3 2.3 -3.3 2.3 0 3 0.4 3 2 0 1.4 -0.7 2 -2.3 2 -1.3 0 -2.7 -0.3 -3 -0.7z"/>
  <path d="M105.7 94.4 c-1.8 -1.9 -0.5 -3.4 2.9 -3.4 2.8 0 3.5 0.3 3.2 1.8 -0.3 1.7 -4.8 2.9 -6.1 1.6z"/>
  <path d="M124.7 94.4 c-1.7 -1.7 -0.5 -3.4 2.4 -3.4 2.4 0 3 0.4 2.7 1.8 -0.3 1.7 -3.8 2.9 -5.1 1.6z"/>
  <path d="M116.3 89.3 c-2.1 -0.8 -1.5 -4.3 0.7 -4.3 1.5 0 2 0.7 2 2.5 0 2.5 -0.4 2.8 -2.7 1.8z"/>
  <path d="M48 82.6 c0 -0.8 -1 -1.6 -2.2 -1.8 -1.3 -0.2 -2.4 -1.1 -2.6 -2 -0.3 -1.5 0.4 -1.8 3.7 -1.8 4 0 4.1 0.1 4.1 3.5 0 2.4 -0.5 3.5 -1.5 3.5 -0.8 0 -1.5 -0.6 -1.5 -1.4z"/>
  <path d="M52 80.5 c0 -2.4 0.5 -3.5 1.5 -3.5 0.8 0 1.5 -0.4 1.5 -1 0 -0.5 0.9 -1 2 -1 1.6 0 2 0.7 2 3 0 2.5 -0.4 3 -2.5 3 -1.6 0 -2.5 0.6 -2.5 1.5 0 0.8 -0.4 1.5 -1 1.5 -0.5 0 -1 -1.6 -1 -3.5z"/>
  <path d="M95 77 c0 -1.6 0.7 -2 3 -2 2.3 0 3 0.4 3 2 0 1.6 -0.7 2 -3 2 -2.3 0 -3 -0.4 -3 -2z"/>
  <path d="M115 77 c0 -1.6 0.7 -2 3 -2 2.3 0 3 0.4 3 2 0 1.6 -0.7 2 -3 2 -2.3 0 -3 -0.4 -3 -2z"/>
  <path d="M124 77 c0 -1.6 0.7 -2 3 -2 2.3 0 3 0.4 3 2 0 1.6 -0.7 2 -3 2 -2.3 0 -3 -0.4 -3 -2z"/>
 </g>
 <g fill="#417784">
  <path d="M125 121 c0 -0.6 1.4 -1.6 3.1 -2.2 1.9 -0.7 2.8 -1.5 2.5 -2.4 -0.3 -0.8 -0.1 -1.4 0.4 -1.4 2.3 0 0.7 3.2 -2.2 4.5 -3.2 1.4 -3.1 1.4 4.2 1.4 5.4 0 6.9 -0.3 5.5 -1 -1.7 -0.7 -1.7 -0.8 -0.2 -0.6 1 0.1 1.9 0.7 2 1.2 0.1 0.6 -3.1 1.1 -7.5 1.3 -5.2 0.2 -7.8 -0.1 -7.8 -0.8z"/>
  <path d="M43 119 c0 -1.3 0.7 -2 2 -2 1.3 0 2 0.7 2 2 0 1.3 -0.7 2 -2 2 -1.3 0 -2 -0.7 -2 -2z"/>
  <path d="M54.5 119.7 c-0.5 -0.7 -1.8 -2.8 -2.7 -4.5 l-1.7 -3.2 2.9 0 c2.5 0 3 0.4 3 2.5 0 1.6 0.6 2.5 1.5 2.5 0.8 0 1.5 0.9 1.5 2 0 2.3 -2.9 2.7 -4.5 0.7z"/>
  <path d="M83 119 c0 -1.1 0.5 -2 1 -2 0.6 0 1 -0.7 1 -1.5 0 -0.8 -0.4 -1.5 -1 -1.5 -0.5 0 -1 -1.6 -1 -3.5 0 -2.4 0.5 -3.5 1.5 -3.5 0.8 0 1.5 0.7 1.5 1.5 0 1.3 0.3 1.3 2 0.3 1.7 -1.1 2.2 -1 3 0.1 0.6 1.1 0.9 0.4 1.2 -2.4 0.2 -2.8 0.8 -4.1 2.1 -4.3 1.5 -0.3 1.7 0.5 1.7 5.7 0 4.8 -0.3 6.1 -1.5 6.1 -0.8 0 -1.5 0.7 -1.5 1.5 0 0.8 0.5 1.5 1 1.5 0.6 0 1 0.9 1 2 0 3 -3.8 2.6 -4.6 -0.5 -0.3 -1.4 -1 -2.5 -1.4 -2.5 -0.4 0 -1.1 1.1 -1.4 2.5 -0.8 3.1 -4.6 3.5 -4.6 0.5z"/>
  <path d="M107 119 c-0.7 -1 -2.3 -2.1 -3.4 -2.3 -1.2 -0.2 -0.4 -0.5 1.6 -0.6 3.9 -0.1 6.5 -2.1 2.8 -2.1 -2.6 0 -6 -1.7 -6 -3 0 -0.6 0.7 -1 1.5 -1 0.9 0 1.5 -0.9 1.5 -2.5 0 -2.2 0.4 -2.5 4 -2.5 4.8 0 5.5 2 0.8 2.1 l-3.3 0.1 3.3 1 c2.9 1 3.2 1.5 3.2 4.9 0 2 0.6 4 1.3 4.3 0.8 0.3 0.6 0.9 -0.7 2 -2.7 2.1 -4.9 2 -6.6 -0.4z"/>
  <path d="M65 111 l0 -7 3.5 0 c2.4 0 3.5 0.5 3.5 1.5 0 0.8 -0.7 1.5 -1.5 1.5 -0.8 0 -1.5 0.5 -1.5 1 0 0.6 0.7 1 1.5 1 0.8 0 1.5 0.9 1.5 2 0 1.1 -0.7 2 -1.5 2 -0.8 0 -1.5 0.7 -1.5 1.5 0 0.8 0.7 1.5 1.5 1.5 0.8 0 1.5 0.5 1.5 1 0 0.6 -1.6 1 -3.5 1 l-3.5 0 0 -7z"/>
  <path d="M121.4 113.6 c-0.3 -0.8 -0.4 -2.5 -0.2 -3.8 0.3 -1.7 0.5 -1.3 0.9 1.5 0.5 3.8 0.2 4.7 -0.7 2.3z"/>
  <path d="M123.1 109.8 c0.1 -1.6 0.3 -1.8 0.6 -0.6 0.2 0.9 1.2 1.9 2.1 2.1 1.2 0.3 1 0.5 -0.5 0.6 -1.8 0.1 -2.3 -0.4 -2.2 -2.1z"/>
  <path d="M133 110.9 c1.4 -0.6 4 -0.9 5.8 -0.7 2.8 0.4 3.2 0.1 3.2 -1.9 0 -1.3 -0.4 -2.3 -1 -2.3 -0.5 0 -0.7 -0.7 -0.4 -1.5 0.5 -1.1 -0.1 -1.5 -2.5 -1.5 -2.1 0 -3.1 0.5 -3.1 1.5 0 2.5 -1.7 1.7 -2.2 -1 -0.5 -2.4 -0.3 -2.5 4.9 -2.5 l5.4 0 -0.3 5.3 -0.3 5.2 -6 0.2 c-5 0.2 -5.6 0.1 -3.5 -0.8z"/>
  <path d="M49 107.3 c0 -3.5 0 -3.6 2 -1.8 1.8 1.6 2 1.6 2 0.2 0 -1 0.7 -1.7 1.5 -1.7 1 0 1.5 1.1 1.5 3.5 0 3.3 -0.2 3.5 -3.5 3.5 -3.4 0 -3.5 -0.1 -3.5 -3.7z"/>
  <path d="M134 108 c0 -0.5 1.6 -1 3.5 -1 1.9 0 3.5 0.5 3.5 1 0 0.6 -1.6 1 -3.5 1 -1.9 0 -3.5 -0.4 -3.5 -1z"/>
  <path d="M82 104 c0 -1.3 0.7 -2 2 -2 1.3 0 2 0.7 2 2 0 1.3 -0.7 2 -2 2 -1.3 0 -2 -0.7 -2 -2z"/>
  <path d="M121.4 100.5 c0.1 -1.2 0.9 -2.1 2.1 -2.2 1.4 -0.1 1.5 0 0.3 0.3 -0.9 0.3 -1.9 1.3 -2.1 2.2 -0.3 1.2 -0.4 1.1 -0.3 -0.3z"/>
  <path d="M137 99 l-6.5 -0.7 6.8 -0.1 c3.9 -0.1 6.7 0.2 6.7 0.8 0 0.6 -0.1 0.9 -0.2 0.8 -0.2 -0.1 -3.2 -0.4 -6.8 -0.8z"/>
  <path d="M70.3 93.2 c-6.1 -0.4 -6.9 -1.6 -5.8 -9.3 0.6 -4.1 0.4 -4.9 -0.9 -4.9 -0.9 0 -1.6 -0.8 -1.6 -2 0 -1.9 0.5 -2.1 6.8 -1.8 6.1 0.3 6.7 0.5 7 2.6 0.3 2 -0.1 2.2 -3.7 2.2 -4.9 0 -6.4 1.7 -1.9 2.2 4.2 0.4 4.8 4.1 0.8 4.6 -4.5 0.6 -4.6 2.2 -0.2 2.2 2.8 0 4.5 0.5 4.8 1.5 1 2.5 0 3 -5.3 2.7z"/>
  <path d="M79.6 92.4 c-2 -2 -2.1 -5.4 -0.1 -5.4 0.8 0 1.5 -0.9 1.5 -2 0 -1.1 -0.7 -2 -1.5 -2 -1.9 0 -1.9 -3 -0.1 -5.5 0.9 -1.3 3 -2 7 -2.3 l5.6 -0.4 0 3 c0 2.8 -0.3 3.1 -3.7 3.4 -3.5 0.3 -3.8 0.6 -4.1 3.6 -0.3 2.7 0.1 3.5 1.7 3.9 3 0.8 2.6 3.3 -0.4 3.3 -1.4 0 -2.5 0.5 -2.5 1 0 1.5 -1.6 1.2 -3.4 -0.6z"/>
  <path d="M105 91 c0 -2.3 -0.4 -3 -2 -3 -1.1 0 -2 0.7 -2 1.5 0 0.8 -0.4 1.5 -1 1.5 -0.5 0 -1 -1.6 -1 -3.5 0 -2.4 0.5 -3.5 1.5 -3.5 0.8 0 1.5 -0.4 1.5 -1 0 -0.5 0.6 -1 1.4 -1 0.9 0 1.6 -1.2 1.8 -3.2 0.3 -2.9 0.6 -3.3 3.3 -3.3 l3 0 0.3 9.3 0.3 9.2 -3.6 0 c-3.2 0 -3.5 -0.2 -3.5 -3z"/>
  <path d="M119 84.5 c0 -1.9 0.5 -3.5 1 -3.5 0.6 0 1 0.7 1 1.5 0 0.8 0.7 1.5 1.5 1.5 0.8 0 1.5 -0.7 1.5 -1.5 0 -0.8 0.7 -1.5 1.5 -1.5 1 0 1.5 1.1 1.5 3.5 0 3.4 -0.1 3.5 -4 3.5 -3.9 0 -4 -0.1 -4 -3.5z"/>
  <path d="M51 81.5 c0 -2.3 -0.4 -2.5 -4.1 -2.5 -3.3 0 -4 -0.3 -3.7 -1.7 0.3 -1.5 1.5 -1.8 7.8 -1.8 6.3 0 7.5 0.3 7.8 1.7 0.2 1.2 -0.6 2.1 -2.2 2.8 -1.4 0.5 -2.6 1.6 -2.6 2.5 0 0.8 -0.7 1.5 -1.5 1.5 -0.9 0 -1.5 -0.9 -1.5 -2.5z"/>
  <path d="M95.2 77.3 c0.2 -1.2 1.2 -1.8 2.8 -1.8 1.6 0 2.6 0.6 2.8 1.8 0.3 1.3 -0.3 1.7 -2.8 1.7 -2.5 0 -3.1 -0.4 -2.8 -1.7z"/>
  <path d="M115.2 77.3 c0.2 -1.2 1.2 -1.8 2.8 -1.8 1.6 0 2.6 0.6 2.8 1.8 0.3 1.3 -0.3 1.7 -2.8 1.7 -2.5 0 -3.1 -0.4 -2.8 -1.7z"/>
  <path d="M124.2 77.3 c0.2 -1.2 1.2 -1.8 2.8 -1.8 1.6 0 2.6 0.6 2.8 1.8 0.3 1.3 -0.3 1.7 -2.8 1.7 -2.5 0 -3.1 -0.4 -2.8 -1.7z"/>
 </g>
 <g fill="#295b66">
  <path d="M43.3 119.4 c-0.4 -1 -0.2 -1.9 0.5 -2.2 0.7 -0.2 1.2 -2.3 1.2 -4.8 0 -2.4 0.5 -4.4 1 -4.4 0.6 0 1 -1.5 1 -3.2 l0.1 -3.3 2.9 3.3 3 3.2 0 -3 c0 -2.3 0.4 -3 2 -3 1.7 0 2 0.7 2 4.5 0 3.8 -0.3 4.5 -2 4.5 -1.1 0 -2 0.5 -2 1 0 0.6 0.9 1 2 1 1.3 0 2 0.7 2 1.9 0 1.1 0.5 2.1 1.2 2.3 0.7 0.3 0.9 1.2 0.5 2.2 -1.1 2.7 -5.1 1.7 -5.5 -1.4 -0.2 -1.4 -1.1 -3.3 -2 -4.4 -1.6 -1.7 -1.7 -1.6 -2.2 2.5 -0.4 3.6 -0.9 4.5 -2.8 4.7 -1.4 0.2 -2.5 -0.3 -2.9 -1.4z"/>
  <path d="M63 119 c0 -1.1 0.5 -2 1 -2 0.6 0 1 -2.6 1 -5.7 0 -3.2 0.4 -6.3 0.8 -6.9 0.4 -0.6 3.1 -1.4 6 -1.8 5.2 -0.7 5.3 -0.6 5 1.6 -0.2 1.9 -1 2.3 -4.6 2.6 -4.7 0.3 -4.8 2.2 -0.1 2.2 2.2 0 2.9 0.5 2.9 2 0 1.5 -0.7 2 -2.9 2 -3.2 0 -4.8 1.4 -3 2.6 0.7 0.4 2.7 0.7 4.6 0.6 3 -0.1 3.4 0.1 3.1 2.1 -0.3 2 -0.9 2.2 -7 2.5 -6.3 0.3 -6.8 0.1 -6.8 -1.8z"/>
  <path d="M81 118.4 c-1.3 -3.3 -1.3 -5.4 0 -5.4 0.6 0 1 -2.5 1 -5.6 0 -4.7 0.3 -5.5 1.8 -5.2 1.2 0.2 1.8 1.5 2 4.7 0.3 3.9 0.5 4.1 1.7 2.5 1.3 -1.8 1.4 -1.8 3.4 0 2.1 1.9 2.1 1.9 2.1 -0.3 0 -3 2.4 -2.2 2.9 1 0.1 1.3 0.8 2.7 1.4 3.1 1.6 1 -0.5 7.2 -2.6 7.6 -2.3 0.5 -4.7 -1.5 -4.7 -3.9 0 -1.1 -0.4 -1.9 -1 -1.9 -0.5 0 -1 0.8 -1 1.8 0 4.5 -5.5 5.7 -7 1.6z"/>
  <path d="M101.8 120.4 c-0.5 -0.4 -0.8 -1.6 -0.8 -2.6 0 -1.5 0.8 -1.8 4.5 -1.8 5.2 0 6 -1.5 1.3 -2.4 -4.2 -0.8 -5.8 -2.3 -5.8 -5.5 0 -4.9 1.8 -6.1 8.3 -5.4 4.7 0.5 5.7 0.9 5.7 2.4 0 1.5 -0.8 1.9 -4.1 1.9 -2.4 0 -3.8 0.4 -3.4 1 0.3 0.6 1.9 1 3.4 1 1.5 0 3.2 0.5 3.9 1.2 1.7 1.7 1.5 7.3 -0.4 8.9 -1.7 1.4 -11.5 2.5 -12.6 1.3z"/>
  <path d="M121.4 113.6 c-0.3 -0.7 -0.4 -4.2 -0.2 -7.7 l0.3 -6.4 0.5 7.8 c0.5 7.7 0.4 8.9 -0.6 6.3z"/>
  <path d="M123.4 110.6 c-0.3 -0.7 -0.4 -3.3 -0.1 -5.7 0.3 -4.4 0.4 -4.4 0.5 0.8 l0.2 5.2 9.3 0.4 9.2 0.3 -9.3 0.2 c-7.1 0.2 -9.4 -0.1 -9.8 -1.2z"/>
  <path d="M135.8 107.3 c1.2 -0.2 3 -0.2 4 0 0.9 0.3 -0.1 0.5 -2.3 0.4 -2.2 0 -3 -0.2 -1.7 -0.4z"/>
  <path d="M127.3 98.3 c3.2 -0.2 8.1 -0.2 11 0 2.9 0.2 0.3 0.3 -5.8 0.3 -6 0 -8.4 -0.1 -5.2 -0.3z"/>
  <path d="M48 92 c0 -1.3 0.7 -2 2 -2 1.3 0 2 0.7 2 2 0 1.3 -0.7 2 -2 2 -1.3 0 -2 -0.7 -2 -2z"/>
  <path d="M72 92 c0 -1.3 0.7 -2 2 -2 1.3 0 2 0.7 2 2 0 1.3 -0.7 2 -2 2 -1.3 0 -2 -0.7 -2 -2z"/>
  <path d="M95 85 c0 -8.3 0.1 -9 2 -9 1.7 0 2 0.7 2 4 l0 4 5 0 5 0 0 3.5 c0 3.9 -2.4 5 -3.3 1.5 -0.3 -1.1 -1.3 -2 -2.2 -2 -0.9 0 -1.9 0.9 -2.2 2 -0.3 1.1 -0.9 2 -1.4 2 -0.5 0 -0.9 0.7 -0.9 1.5 0 0.8 -0.9 1.5 -2 1.5 -1.9 0 -2 -0.7 -2 -9z"/>
  <path d="M124 92 c0 -1.3 0.7 -2 2 -2 1.3 0 2 0.7 2 2 0 1.3 -0.7 2 -2 2 -1.3 0 -2 -0.7 -2 -2z"/>
  <path d="M64 85 l0 -8 3.5 0 c3.9 0 4.9 2.4 1.4 3.3 -2.3 0.6 -1.7 2.7 0.7 2.7 0.8 0 1.4 0.9 1.4 2 0 1.3 -0.7 2 -2 2 -1.1 0 -2 0.5 -2 1.1 0 0.6 0.9 1.3 2 1.6 3.5 0.9 2.4 3.3 -1.5 3.3 l-3.5 0 0 -8z"/>
  <path d="M79 91.1 c-1.1 -2.1 -1.3 -8.3 -0.4 -11.8 0.7 -2.7 1.9 -3.1 6.7 -2.5 4.2 0.5 5 2.7 1.2 3.6 -1.4 0.4 -2.5 1.3 -2.5 2 0 0.8 -0.6 1.7 -1.2 2 -1 0.5 -1 0.7 0 1.2 0.6 0.3 1.2 1.2 1.2 2 0 1 1.2 1.4 4 1.4 3.3 0 4 0.3 4 2 0 1.8 -0.7 2 -6 2 -4.8 0 -6.1 -0.4 -7 -1.9z"/>
  <path d="M116.2 88.8 c-1.5 -1.5 -1.6 -4.8 -0.2 -4.8 0.6 0 1 -1.8 1 -4 0 -3.3 0.3 -4 1.9 -4 1.6 0 2 0.8 2.3 4.2 0.3 4.5 2.4 6.3 3.1 2.6 0.3 -1.5 0.5 -1 0.6 1.5 0.1 3.1 -0.2 3.7 -1.9 3.7 -1.1 0 -2 0.5 -2 1 0 1.4 -3.3 1.3 -4.8 -0.2z"/>
  <path d="M43 78 c0 -1.3 0.7 -2 2 -2 1.3 0 2 0.7 2 2 0 1.3 -0.7 2 -2 2 -1.3 0 -2 -0.7 -2 -2z"/>
  <path d="M72 78 c0 -1.3 0.7 -2 2 -2 1.3 0 2 0.7 2 2 0 1.3 -0.7 2 -2 2 -1.3 0 -2 -0.7 -2 -2z"/>
  <path d="M124 78 c0 -1.3 0.7 -2 2 -2 1.3 0 2 0.7 2 2 0 1.3 -0.7 2 -2 2 -1.3 0 -2 -0.7 -2 -2z"/>
 </g>
 <g fill="#000000">
  <path d="M43 111 c0 -8.9 0 -9 2.4 -9 1.6 0 3.2 1.1 4.6 3 1.2 1.7 2.6 3 3.1 3 0.5 0 0.9 -1.3 0.9 -3 0 -2.5 0.4 -3 2.5 -3 2.5 0 2.5 0.1 2.5 9 0 8.9 0 9 -2.5 9 -1.7 0 -2.5 -0.6 -2.5 -1.7 -0.1 -1.7 -4.3 -7.3 -5.5 -7.3 -0.3 0 -0.5 2 -0.5 4.5 0 4.1 -0.2 4.5 -2.5 4.5 -2.5 0 -2.5 -0.1 -2.5 -9z"/>
  <path d="M63 111 l0 -9 6.5 0 c5.8 0 6.5 0.2 6.5 1.9 0 1.6 -0.8 2 -3.7 2.3 -4.6 0.4 -5.8 2.8 -1.4 2.8 2.4 0 3.1 0.4 3.1 2 0 1.6 -0.7 2 -3 2 -2 0 -3 0.5 -3 1.5 0 1.1 1.1 1.5 4 1.5 3.3 0 4 0.3 4 2 0 1.8 -0.7 2 -6.5 2 l-6.5 0 0 -9z"/>
  <path d="M81 117.4 c-0.6 -1.4 -1 -5.4 -1 -9 0 -6.2 0.1 -6.4 2.5 -6.4 2.3 0 2.5 0.3 2.5 5.3 0.1 4.5 0.2 5 1.4 3.5 0.7 -1 1.9 -1.8 2.6 -1.8 0.7 0 1.9 0.8 2.6 1.8 1.2 1.5 1.3 1 1.4 -3.5 0 -5 0.2 -5.3 2.5 -5.3 2.4 0 2.5 0.2 2.5 6.4 0 8.4 -1.2 11.6 -4.4 11.6 -1.7 0 -2.6 -0.7 -3 -2.5 -0.4 -1.4 -1.1 -2.5 -1.6 -2.5 -0.5 0 -1.2 1.1 -1.6 2.5 -0.9 3.5 -5.1 3.5 -6.4 -0.1z"/>
  <path d="M102 118 c0 -1.7 0.7 -2 4 -2 4.6 0 5.4 -1.7 1.3 -2.6 -5.1 -1.1 -5.3 -1.3 -5.3 -5.2 0 -5.1 1.4 -6.2 7.7 -6.2 4.6 0 5.3 0.3 5.3 1.9 0 1.6 -0.8 2 -3.7 2.3 -4.5 0.4 -5.8 2.8 -1.5 2.8 5.2 0 7.7 4.4 5.2 9.1 -0.9 1.5 -2.2 1.9 -7 1.9 -5.3 0 -6 -0.2 -6 -2z"/>
  <path d="M48.7 93.3 c-0.4 -0.3 -0.7 -3.5 -0.7 -7 0 -5.6 -0.2 -6.3 -2 -6.3 -1.3 0 -2 -0.7 -2 -2 0 -1.8 0.7 -2 7.5 -2 6.8 0 7.5 0.2 7.5 2 0 1.5 -0.7 2 -2.5 2 -2.4 0 -2.5 0.2 -2.5 7 0 6.7 -0.1 7 -2.3 7 -1.3 0 -2.7 -0.3 -3 -0.7z"/>
  <path d="M62 85 l0 -9 6.5 0 c5.8 0 6.5 0.2 6.5 2 0 1.7 -0.7 2 -4 2 -2.9 0 -4 0.4 -4 1.5 0 1 1 1.5 3 1.5 2.3 0 3 0.4 3 2 0 1.6 -0.7 2 -3 2 -2 0 -3 0.5 -3 1.5 0 1.1 1.1 1.5 4 1.5 3.3 0 4 0.3 4 2 0 1.8 -0.7 2 -6.5 2 l-6.5 0 0 -9z"/>
  <path d="M80.2 92.8 c-0.7 -0.7 -1.2 -4 -1.2 -7.8 0 -3.8 0.5 -7.1 1.2 -7.8 0.7 -0.7 3.6 -1.2 6.5 -1.2 4.6 0 5.3 0.3 5.3 1.9 0 1.6 -0.8 2 -3.7 2.3 -3.8 0.3 -3.8 0.3 -3.8 4.8 0 4.5 0 4.5 3.8 4.8 2.9 0.3 3.7 0.7 3.7 2.3 0 1.6 -0.7 1.9 -5.3 1.9 -2.9 0 -5.8 -0.5 -6.5 -1.2z"/>
  <path d="M96 85 c0 -8.9 0 -9 2.5 -9 2.1 0 2.5 0.5 2.5 3 0 2.5 0.4 3 2.5 3 2.1 0 2.5 -0.5 2.5 -3 0 -2.5 0.4 -3 2.5 -3 2.5 0 2.5 0.1 2.5 9 0 8.9 0 9 -2.5 9 -2.2 0 -2.5 -0.4 -2.5 -3.5 0 -3.1 -0.3 -3.5 -2.5 -3.5 -2.2 0 -2.5 0.4 -2.5 3.5 0 3.1 -0.3 3.5 -2.5 3.5 -2.5 0 -2.5 -0.1 -2.5 -9z"/>
  <path d="M124.3 92 c-0.4 -1.4 -1.4 -2 -3.3 -2 -4.4 0 -6 -2.3 -6 -8.6 0 -5.1 0.1 -5.4 2.5 -5.4 2.1 0 2.5 0.5 2.5 2.9 0 7.1 3.7 8.7 4.2 1.9 0.3 -3.9 0.6 -4.3 3.1 -4.6 l2.7 -0.3 0 9 0 9.1 -2.6 0 c-1.7 0 -2.8 -0.6 -3.1 -2z"/>
 </g>
</svg>